
<svg width="0" height="0" xmlns="http://www.w3.org/2000/svg">
	<symbol id="fbIcon" viewBox="0 0 39 39">
  <path fill="currentColor" d="M20.397 27.997v-8.196h2.765l.411-3.209h-3.176v-2.044c0-.926.258-1.56 1.587-1.56h1.684v-2.861c-.82-.088-1.643-.13-2.467-.127-2.444 0-4.122 1.492-4.122 4.231v2.355h-2.747v3.209h2.753v8.202h3.312Z"/>
  </symbol>
  <symbol id="twIcon" viewBox="0 0 39 39">
  <path fill="currentColor" d="M26.633 14.978c.013.175.013.349.013.523 0 5.325-4.053 11.461-11.46 11.461-2.282 0-4.402-.661-6.186-1.809.324.037.636.05.973.05a8.07 8.07 0 0 0 5.001-1.721 4.036 4.036 0 0 1-3.767-2.793c.249.037.499.062.761.062.361 0 .724-.05 1.061-.137a4.028 4.028 0 0 1-3.23-3.953v-.05c.537.299 1.16.486 1.82.511a4.023 4.023 0 0 1-1.796-3.354c0-.748.199-1.434.548-2.032a11.457 11.457 0 0 0 8.306 4.215c-.062-.3-.1-.611-.1-.923A4.025 4.025 0 0 1 22.605 11c1.16 0 2.207.486 2.943 1.272a7.958 7.958 0 0 0 2.556-.973c-.3.93-.93 1.72-1.771 2.22a8.071 8.071 0 0 0 2.319-.624 8.647 8.647 0 0 1-2.019 2.083Z"/>
  </symbol>
  <symbol id="inIcon" viewBox="0 0 39 39">
  <path fill="currentColor" d="M27 10H11a1 1 0 0 0-1 1v16a1 1 0 0 0 1 1h16a1 1 0 0 0 1-1V11a1 1 0 0 0-1-1ZM15.339 25.337h-2.672v-8.59h2.672v8.59Zm-1.336-9.763a1.548 1.548 0 1 1 0-3.096 1.548 1.548 0 0 1 0 3.096Zm11.335 9.763h-2.669V21.16c0-.996-.018-2.277-1.388-2.277-1.39 0-1.601 1.086-1.601 2.207v4.248h-2.667v-8.59h2.56v1.174h.037c.355-.675 1.227-1.387 2.524-1.387 2.704 0 3.203 1.778 3.203 4.092v4.71h.001Z"/>
  </symbol>
</svg>
